<?xml version="1.0" standalone="no"?>
<!DOCTYPE svg PUBLIC "-//W3C//DTD SVG 20010904//EN"
 "http://www.w3.org/TR/2001/REC-SVG-20010904/DTD/svg10.dtd">
<svg version="1.0" xmlns="http://www.w3.org/2000/svg"
 width="1204.000000pt" height="1204.000000pt" viewBox="0 0 1204.000000 1204.000000"
 preserveAspectRatio="xMidYMid meet">
<metadata>
Created by potrace 1.14, written by Peter Selinger 2001-2017
</metadata>
<g transform="translate(0.000000,1204.000000) scale(0.100000,-0.100000)"
fill="#000000" stroke="none">
<path d="M3787 10064 c-2 -2 -21 -6 -43 -9 -21 -4 -57 -11 -79 -17 -22 -5 -48
-12 -57 -13 -39 -8 -193 -82 -258 -124 -244 -159 -419 -435 -457 -721 -12 -93
-6 -305 11 -350 3 -8 7 -26 10 -40 21 -121 130 -326 236 -443 31 -35 145 -133
242 -210 144 -112 395 -371 518 -533 25 -32 48 -60 53 -62 4 -2 7 -10 7 -17 0
-7 4 -15 8 -17 7 -2 106 -148 159 -233 31 -50 125 -227 156 -295 59 -128 77
-170 77 -175 0 -3 9 -27 21 -53 26 -60 58 -134 104 -247 21 -49 46 -109 56
-132 11 -24 19 -45 19 -48 0 -3 9 -27 21 -53 12 -26 25 -56 29 -67 4 -11 17
-41 29 -67 12 -26 21 -50 21 -53 0 -3 9 -24 20 -48 67 -146 84 -234 66 -351
-29 -195 -196 -368 -391 -403 -39 -7 -140 -7 -184 0 -37 6 -140 45 -155 59 -6
4 -18 8 -28 8 -10 0 -18 5 -18 11 0 5 -4 8 -9 4 -5 -3 -12 -1 -16 5 -3 5 -14
10 -24 10 -10 0 -24 7 -31 15 -7 9 -15 13 -18 11 -3 -3 -17 1 -31 9 -14 8 -48
24 -76 35 -27 12 -68 29 -90 40 -90 41 -158 71 -218 96 -34 14 -68 31 -74 36
-7 6 -13 8 -13 5 0 -3 -28 8 -62 25 -34 16 -66 31 -72 32 -21 3 -311 148 -330
164 -10 10 -21 16 -25 15 -9 -2 -215 127 -307 194 -151 109 -227 175 -379 328
-125 125 -150 153 -200 220 -17 21 -37 47 -46 56 -9 9 -25 30 -35 48 -10 17
-22 31 -26 31 -4 0 -8 5 -8 11 0 6 -6 16 -12 23 -7 8 -20 24 -28 37 -8 13 -49
57 -90 99 -108 110 -238 193 -379 244 -39 14 -71 23 -71 20 0 -4 -6 -2 -12 3
-7 6 -31 13 -53 17 -22 3 -53 9 -70 12 -113 21 -300 6 -430 -36 -34 -10 -74
-24 -90 -31 -17 -7 -36 -13 -43 -15 -7 -1 -19 -7 -26 -13 -7 -6 -33 -22 -58
-35 -59 -32 -148 -96 -148 -107 0 -5 -5 -9 -11 -9 -34 0 -268 -297 -253 -321
3 -5 1 -9 -4 -9 -11 0 -72 -151 -72 -178 0 -10 -3 -22 -7 -26 -4 -3 -8 -12 -9
-19 -1 -7 -5 -28 -9 -47 -13 -63 -13 -288 0 -350 7 -33 10 -60 7 -60 -3 0 -1
-5 6 -12 7 -7 12 -22 12 -35 0 -12 5 -35 12 -50 41 -101 92 -198 133 -258 47
-69 195 -225 214 -225 5 0 11 -4 13 -8 2 -5 23 -22 48 -38 109 -74 262 -134
405 -161 55 -10 272 -8 375 3 98 10 544 12 640 2 112 -12 164 -19 210 -28 25
-5 52 -9 60 -9 30 0 298 -67 350 -88 8 -3 20 -7 25 -8 15 -4 147 -54 170 -65
11 -5 41 -18 68 -29 26 -12 66 -30 90 -40 23 -10 121 -54 217 -96 96 -43 191
-85 210 -93 19 -9 37 -16 40 -17 3 -1 25 -11 50 -22 25 -11 83 -37 130 -58
223 -97 272 -125 346 -200 111 -112 160 -229 163 -393 4 -153 8 -207 26 -352
4 -26 6 -38 26 -125 15 -69 48 -186 59 -210 5 -11 12 -31 15 -45 12 -42 98
-234 117 -259 10 -13 18 -30 18 -37 0 -8 5 -14 10 -14 6 0 10 -4 10 -10 0 -13
61 -110 112 -179 15 -20 31 -41 35 -46 74 -100 243 -269 348 -347 28 -21 57
-43 65 -50 27 -24 81 -58 90 -58 6 0 10 -4 10 -10 0 -5 7 -10 15 -10 8 0 15
-3 15 -7 0 -5 10 -13 23 -19 12 -6 63 -31 112 -56 103 -53 140 -69 210 -94 28
-9 56 -22 63 -27 6 -5 12 -7 12 -4 0 4 18 0 40 -8 22 -8 42 -15 45 -15 3 0 10
-2 17 -5 15 -5 160 -34 203 -41 164 -26 464 -26 625 -1 48 8 125 23 160 32 11
3 30 7 42 10 100 22 434 156 458 184 3 3 25 17 50 30 75 40 217 141 272 193
10 10 21 18 24 18 8 0 185 180 224 229 19 24 40 48 46 55 60 65 244 375 244
412 0 8 5 14 10 14 6 0 10 7 10 15 0 8 7 31 16 52 9 21 20 47 25 58 15 36 49
150 55 179 3 16 7 33 9 36 3 4 7 25 10 46 4 22 8 46 11 55 2 9 7 34 10 55 2
22 7 50 9 64 3 14 7 77 10 140 7 145 13 228 20 260 8 42 54 152 71 172 10 10
14 18 11 18 -15 0 112 136 159 170 37 27 122 70 138 70 9 0 16 5 16 10 0 6 6
10 14 10 8 0 52 17 98 39 45 21 111 51 146 65 34 15 92 40 128 56 35 17 66 30
69 30 2 0 39 16 82 36 79 37 277 124 293 129 3 1 16 6 30 12 24 11 46 19 62
22 4 1 28 10 54 21 25 11 55 22 67 24 12 2 41 11 65 20 23 8 42 13 42 9 0 -3
6 -1 13 4 6 6 19 11 27 11 20 1 58 10 68 16 5 3 24 8 43 11 19 3 68 13 109 22
41 8 91 17 110 19 19 3 46 7 60 9 45 8 164 19 217 19 29 1 53 4 53 7 0 6 250
4 685 -3 83 -2 170 0 195 4 61 10 186 45 221 64 16 8 29 12 29 8 0 -4 6 -2 13
3 6 6 39 25 72 43 123 67 274 203 342 306 7 11 24 36 38 57 20 31 65 118 70
137 1 3 6 16 12 30 6 14 11 27 11 30 0 3 6 19 12 35 29 74 48 202 47 325 0 69
-4 133 -9 142 -4 10 -10 31 -12 47 -5 45 -49 181 -58 181 -4 0 -8 7 -8 15 0
44 -112 212 -205 308 -67 71 -157 142 -216 173 -19 9 -36 20 -39 23 -9 11
-143 68 -204 86 -141 43 -334 51 -476 21 -14 -3 -34 -8 -45 -10 -11 -2 -54
-15 -95 -29 -144 -49 -269 -127 -382 -240 -74 -73 -86 -87 -160 -192 -31 -44
-64 -90 -75 -101 -10 -12 -36 -43 -58 -70 -50 -63 -284 -296 -354 -354 -29
-25 -83 -67 -120 -95 -36 -27 -67 -53 -69 -57 -2 -4 -9 -8 -15 -8 -7 0 -24
-11 -39 -25 -15 -14 -32 -25 -37 -25 -5 0 -16 -6 -23 -13 -49 -48 -475 -273
-608 -322 -18 -6 -95 -41 -149 -67 -36 -17 -69 -31 -75 -32 -6 -1 -15 -4 -21
-8 -29 -18 -215 -96 -215 -90 0 4 -4 2 -8 -3 -4 -6 -56 -32 -117 -59 -60 -26
-123 -54 -140 -61 -74 -33 -107 -44 -142 -51 -57 -10 -154 -10 -193 0 -19 4
-39 10 -45 11 -5 1 -14 4 -20 5 -5 1 -28 11 -50 22 -105 54 -189 140 -232 239
-28 63 -32 74 -39 127 -17 112 -3 191 57 327 8 18 30 73 34 85 2 7 34 80 45
105 39 88 80 191 80 202 0 7 5 13 12 13 6 0 9 3 6 6 -3 3 11 44 31 92 39 90
53 124 56 132 1 3 6 16 12 30 6 14 28 66 48 115 36 87 97 224 114 255 4 8 29
56 56 105 26 50 56 102 66 117 11 14 19 31 19 37 0 6 5 11 10 11 6 0 10 5 10
11 0 14 138 213 211 304 140 172 449 485 480 485 4 0 14 8 21 18 7 9 40 37 72
61 89 66 205 187 257 266 43 65 103 181 98 187 -1 2 4 14 11 28 17 33 50 161
44 172 -3 4 -2 8 3 8 15 0 22 216 10 315 -12 98 -67 270 -91 287 -6 4 -7 8 -3
8 10 0 -34 78 -92 160 -41 58 -171 200 -184 200 -3 0 -19 12 -36 27 -75 66
-287 167 -396 189 -135 27 -328 26 -445 -1 -14 -3 -35 -8 -48 -11 -65 -13
-282 -114 -312 -144 -3 -3 -23 -19 -45 -35 -135 -101 -260 -268 -335 -450 -55
-133 -77 -330 -57 -525 17 -173 21 -251 20 -450 0 -118 -3 -244 -7 -280 -23
-230 -26 -248 -46 -345 -6 -27 -12 -61 -14 -75 -4 -21 -56 -222 -71 -270 -5
-18 -53 -148 -62 -170 -3 -8 -7 -17 -8 -20 -1 -3 -7 -17 -13 -32 -6 -15 -27
-67 -47 -115 -20 -48 -45 -108 -57 -133 -11 -25 -22 -49 -23 -55 -2 -9 -9 -28
-45 -112 -21 -50 -31 -72 -71 -168 -22 -55 -47 -113 -54 -130 -33 -79 -75
-181 -80 -195 -1 -3 -8 -18 -15 -35 -7 -16 -14 -32 -14 -35 -1 -3 -13 -26 -28
-51 -31 -53 -124 -142 -171 -163 -106 -48 -110 -49 -262 -52 -135 -3 -157 -1
-216 20 -122 42 -206 118 -267 239 -20 40 -37 75 -38 80 -1 4 -3 9 -4 12 -1 3
-3 8 -4 13 -1 4 -9 23 -18 42 -47 104 -78 182 -78 195 0 8 -4 15 -10 15 -5 0
-9 3 -8 8 1 8 6 -2 -93 233 -43 102 -81 197 -84 212 -4 15 -12 27 -18 27 -6 0
-7 3 -4 7 4 3 0 17 -8 30 -9 13 -13 28 -10 32 3 5 2 11 -3 13 -17 7 -161 380
-178 462 -2 10 -8 33 -13 50 -6 17 -12 45 -15 61 -3 17 -12 64 -20 105 -8 41
-17 98 -21 125 -4 28 -8 61 -11 75 -2 14 -6 97 -9 185 -3 88 -8 166 -10 173
-2 6 1 12 7 12 7 0 7 4 -1 13 -6 8 -8 17 -5 20 4 4 8 46 9 94 3 90 6 126 29
313 13 106 14 272 1 345 -54 321 -271 616 -555 755 -36 17 -77 38 -92 46 -16
8 -28 13 -28 11 0 -3 -21 2 -47 10 -89 27 -198 41 -310 41 -62 0 -114 -2 -116
-4z"/>
</g>
</svg>
